<svg xmlns="http://www.w3.org/2000/svg" viewBox="0 0 750 500"><g id="freepik--background-complete--inject-94"><path d="M587.4,341.52a31.44,31.44,0,0,1,7.54-3.22l1.55-7.34,12.59-.21,1.81,7.27a31.31,31.31,0,0,1,7.65,3l6.36-4.1,9.06,8.61-3.94,6.4a30,30,0,0,1,3.27,7.42l7.46,1.52.22,12.4-7.4,1.78a30.37,30.37,0,0,1-3,7.53l4.17,6.26L626,397.72l-6.51-3.88a31.37,31.37,0,0,1-7.53,3.22l-1.55,7.34-12.6.21L596,397.33a31.22,31.22,0,0,1-7.64-2.95l-6.37,4.1-9.06-8.61,4-6.4a30.43,30.43,0,0,1-3.28-7.42l-7.45-1.52-.22-12.4,7.39-1.79a30.49,30.49,0,0,1,3-7.52l-4.17-6.26,8.75-8.92,6.5,3.88Zm8,15.35a13.18,13.18,0,0,0,.38,21.1,13.67,13.67,0,0,0,16.46-.29,13.18,13.18,0,0,0-.38-21.1A13.67,13.67,0,0,0,595.42,356.87Z" style="fill:#ebebeb"></path><path d="M444.1,421.56a24,24,0,0,1,5.8-2.48l1.19-5.64,9.69-.17,1.39,5.6a24.09,24.09,0,0,1,5.88,2.27l4.89-3.15,7,6.62-3,4.93a23,23,0,0,1,2.52,5.7l5.73,1.17.17,9.54-5.69,1.37a23.13,23.13,0,0,1-2.31,5.78l3.21,4.82-6.73,6.86-5-3a23.8,23.8,0,0,1-5.79,2.48l-1.19,5.64-9.69.17-1.39-5.6a24.09,24.09,0,0,1-5.88-2.27l-4.9,3.16-7-6.63,3-4.92a23.12,23.12,0,0,1-2.52-5.7l-5.73-1.18-.17-9.53,5.69-1.38a23.29,23.29,0,0,1,2.31-5.78l-3.21-4.82,6.73-6.86,5,3Zm6.17,11.8a10.14,10.14,0,0,0,.29,16.23,10.52,10.52,0,0,0,12.66-.22,10.14,10.14,0,0,0-.29-16.23A10.52,10.52,0,0,0,450.27,433.36Z" style="fill:#f5f5f5"></path><path d="M663.73,334.78a13.26,13.26,0,0,1,3.36-1.44l.69-3.28,5.63-.1.81,3.25a14.17,14.17,0,0,1,3.41,1.32l2.84-1.83,4,3.85-1.76,2.86a13.36,13.36,0,0,1,1.46,3.31l3.33.68.1,5.53-3.31.8a13.26,13.26,0,0,1-1.34,3.36l1.86,2.8-3.9,4-2.91-1.73a13.6,13.6,0,0,1-3.36,1.43l-.69,3.28-5.63.1-.81-3.25a14.33,14.33,0,0,1-3.41-1.32l-2.84,1.83-4-3.85L659,353.5a13.36,13.36,0,0,1-1.46-3.31l-3.33-.68-.09-5.53,3.3-.8a13.64,13.64,0,0,1,1.34-3.36l-1.86-2.8,3.9-4,2.91,1.74Zm3.58,6.85a5.88,5.88,0,0,0,.17,9.42,6.11,6.11,0,0,0,7.35-.13,5.88,5.88,0,0,0-.17-9.42A6.11,6.11,0,0,0,667.31,341.63Z" style="fill:#ebebeb"></path><path d="M583.65,429.68a13.83,13.83,0,0,1,3.37-1.43l.69-3.28,5.62-.1.81,3.25a14.17,14.17,0,0,1,3.41,1.32l2.85-1.83,4,3.85-1.76,2.86a13.36,13.36,0,0,1,1.46,3.31l3.33.68.1,5.53-3.3.8a13.64,13.64,0,0,1-1.34,3.36l1.86,2.8-3.91,4L598,453a13.48,13.48,0,0,1-3.37,1.44l-.69,3.28-5.62.1-.81-3.25a14,14,0,0,1-3.42-1.33l-2.84,1.84-4-3.85,1.76-2.86a13,13,0,0,1-1.46-3.31l-3.33-.68-.1-5.53,3.3-.8a13.64,13.64,0,0,1,1.34-3.36l-1.86-2.8,3.91-4,2.9,1.73Zm3.58,6.86a5.89,5.89,0,0,0,.17,9.42,6.11,6.11,0,0,0,7.35-.13,5.88,5.88,0,0,0-.17-9.42A6.11,6.11,0,0,0,587.23,436.54Z" style="fill:#f5f5f5"></path><path d="M103.85,75a34.74,34.74,0,0,1,8.4-3.6L114,63.21,128,63l2,8.12a34.49,34.49,0,0,1,8.52,3.3l7.1-4.58,10.1,9.6-4.39,7.14A33.39,33.39,0,0,1,155,94.82l8.32,1.7.24,13.82-8.24,2a33.75,33.75,0,0,1-3.35,8.39l4.65,7-9.76,10-7.25-4.33a34.65,34.65,0,0,1-8.4,3.59l-1.73,8.18-14.05.25-2-8.12a34.49,34.49,0,0,1-8.52-3.3l-7.1,4.58-10.1-9.6,4.4-7.14a33.22,33.22,0,0,1-3.65-8.27l-8.31-1.7L79.89,98l8.25-2a33.45,33.45,0,0,1,3.35-8.38l-4.65-7,9.75-9.94L103.85,75Zm8.93,17.11a14.69,14.69,0,0,0,.43,23.52,15.21,15.21,0,0,0,18.35-.32,14.7,14.7,0,0,0-.42-23.53A15.26,15.26,0,0,0,112.78,92.1Z" style="fill:#ebebeb"></path><path d="M181.48,50a13.6,13.6,0,0,1,3.36-1.43l.69-3.28,5.63-.1.81,3.25a14.33,14.33,0,0,1,3.41,1.32L198.22,48l4.05,3.85-1.76,2.85A13.59,13.59,0,0,1,202,58l3.33.68.1,5.53-3.31.8a13.26,13.26,0,0,1-1.34,3.36l1.86,2.8-3.9,4-2.91-1.74a13.26,13.26,0,0,1-3.36,1.44l-.69,3.28-5.63.1L185.31,75a14,14,0,0,1-3.41-1.33l-2.84,1.84L175,71.62l1.76-2.86a13.36,13.36,0,0,1-1.46-3.31L172,64.77l-.1-5.53,3.31-.8a13.26,13.26,0,0,1,1.34-3.36l-1.86-2.8,3.9-4L181.48,50Zm3.58,6.86a5.88,5.88,0,0,0,.17,9.42,6.11,6.11,0,0,0,7.35-.13,5.89,5.89,0,0,0-.17-9.42A6.11,6.11,0,0,0,185.06,56.89Z" style="fill:#ebebeb"></path><path d="M73,192.6a17.28,17.28,0,0,1,4.18-1.79l.86-4.07,7-.12,1,4a16.85,16.85,0,0,1,4.24,1.64L93.84,190l5,4.78-2.19,3.55a16.7,16.7,0,0,1,1.82,4.11l4.13.85.13,6.88-4.11,1A16.74,16.74,0,0,1,97,215.35l2.31,3.48-4.85,4.94-3.61-2.15a17.28,17.28,0,0,1-4.18,1.79l-.86,4.07-7,.12-1-4a16.85,16.85,0,0,1-4.24-1.64L70,224.2l-5-4.78,2.19-3.55a16.6,16.6,0,0,1-1.82-4.12l-4.14-.84L61.11,204l4.1-1a17,17,0,0,1,1.67-4.17l-2.31-3.48,4.85-4.95L73,192.6Zm4.45,8.51a7.32,7.32,0,0,0,.21,11.71,7.59,7.59,0,0,0,9.13-.16A7.32,7.32,0,0,0,86.61,201,7.59,7.59,0,0,0,77.48,201.11Z" style="fill:#f5f5f5"></path></g><g id="freepik--Graphics--inject-94"><path d="M514,232s0-.77-.08-2.27c0-.75-.05-1.68-.08-2.79s-.06-2.4-.2-3.86-.24-3.09-.39-4.89-.47-3.75-.73-5.87a146.81,146.81,0,0,0-2.84-14.49A137.4,137.4,0,0,0,504,180.28a134.08,134.08,0,0,0-9.73-19.69,141.3,141.3,0,0,0-35.49-39.71A139.25,139.25,0,0,0,400,94.78a142.07,142.07,0,0,0-54.72.62c-3.12.72-6.26,1.39-9.36,2.35s-6.2,1.93-9.31,3a140.21,140.21,0,0,0-35.37,19,152.48,152.48,0,0,0-15.76,13.57,150.46,150.46,0,0,0-13.79,16.1,137,137,0,0,0-11.38,18.32c-.81,1.63-1.72,3.21-2.44,4.88l-2.25,5-2,5.11L243,184l-.44,1.3-.88,2.62-.89,2.62-.76,2.67c-.47,1.78-1.07,3.54-1.44,5.36s-.83,3.62-1.25,5.44-.65,3.67-1,5.51a139.24,139.24,0,0,0,0,44.94,136.41,136.41,0,0,0,5.32,21.61l.88,2.61L243,280l.51,1.28,2,5.12,2.25,5c.36.84.77,1.65,1.19,2.46l1.25,2.42a136.43,136.43,0,0,0,11.38,18.33,150.58,150.58,0,0,0,13.79,16.11,154.78,154.78,0,0,0,15.76,13.57,146.2,146.2,0,0,0,17.21,10.89,148.05,148.05,0,0,0,18.17,8.13c3.11,1,6.17,2.16,9.31,3s6.25,1.62,9.36,2.34a141.77,141.77,0,0,0,54.73.63,139.42,139.42,0,0,0,58.81-26.11,141.3,141.3,0,0,0,35.49-39.71,134.57,134.57,0,0,0,9.72-19.7c.6-1.57,1.28-3.09,1.78-4.62s1-3,1.52-4.49.87-2.92,1.29-4.32.84-2.77,1.14-4.13a146.1,146.1,0,0,0,2.84-14.48c.26-2.12.55-4.07.73-5.87s.27-3.43.39-4.89.17-2.74.2-3.85.06-2,.08-2.8c0-1.5.08-2.26.08-2.26s0,.76,0,2.26c0,.76,0,1.69,0,2.8s0,2.4-.18,3.86-.22,3.09-.36,4.89-.45,3.76-.71,5.88a145.12,145.12,0,0,1-2.79,14.51c-.3,1.36-.75,2.72-1.13,4.14s-.76,2.88-1.28,4.33l-1.52,4.5c-.49,1.54-1.17,3.05-1.77,4.64a134.18,134.18,0,0,1-9.7,19.74A141.41,141.41,0,0,1,459,343.42,139.69,139.69,0,0,1,400,369.66a142.5,142.5,0,0,1-54.91-.59c-3.12-.72-6.28-1.39-9.39-2.35s-6.22-1.94-9.35-3a148.91,148.91,0,0,1-18.23-8.14,147.23,147.23,0,0,1-17.27-10.93,139.61,139.61,0,0,1-29.67-29.77,138.15,138.15,0,0,1-11.43-18.4l-1.25-2.43c-.42-.81-.83-1.63-1.19-2.47l-2.27-5q-1-2.56-2-5.13l-.5-1.29-.45-1.31-.88-2.63a136.34,136.34,0,0,1-5.34-21.69,139.91,139.91,0,0,1,0-45.11l1-5.53q.63-2.73,1.25-5.45c.38-1.83,1-3.6,1.46-5.39l.76-2.67.88-2.64.89-2.62.45-1.31.5-1.29q1-2.57,2-5.13l2.27-5c.72-1.68,1.63-3.26,2.44-4.9a138.68,138.68,0,0,1,11.43-18.39A151.38,151.38,0,0,1,275.08,133a153.42,153.42,0,0,1,15.81-13.61,147.23,147.23,0,0,1,17.27-10.93,148.91,148.91,0,0,1,18.23-8.14c3.13-1,6.2-2.16,9.35-3s6.27-1.62,9.39-2.35a142.42,142.42,0,0,1,54.9-.59,139.84,139.84,0,0,1,59,26.23,141.39,141.39,0,0,1,35.52,39.86,134.37,134.37,0,0,1,9.71,19.75,137.89,137.89,0,0,1,5.7,17.6,145.81,145.81,0,0,1,2.79,14.52c.26,2.12.54,4.08.71,5.88s.26,3.43.36,4.89.16,2.75.18,3.86,0,2.05,0,2.8C514,231.24,514,232,514,232Z" style="fill:#263238"></path><path d="M188.58,180.4s0-.07,0-.23,0-.38.08-.68c.06-.6.2-1.49.38-2.65.4-2.33,1.13-5.73,2.33-10.05A152.9,152.9,0,0,1,206.47,132c.51-.86,1-1.74,1.54-2.63s1.05-1.79,1.64-2.66l3.51-5.42c1.24-1.82,2.57-3.63,3.89-5.49s2.76-3.71,4.23-5.56c2.85-3.79,6.14-7.44,9.45-11.26L236,93.36l1.35-1.42,1.43-1.36,2.88-2.75a216.14,216.14,0,0,1,26.13-21c4.82-3.27,9.83-6.46,15.1-9.4a155.12,155.12,0,0,1,16.43-8.17l.28-.11.07.29c.54,2.07,1.13,4.31,1.71,6.55.78,3,1.56,6,2.3,8.81l.06.22-.21.08a164.82,164.82,0,0,0-44.4,27.38,183.33,183.33,0,0,0-30.42,34.2,200.7,200.7,0,0,0-18.08,32.4c-2.15,4.88-3.92,9.43-5.33,13.57-.7,2.07-1.34,4-1.85,5.89-.27.92-.49,1.82-.71,2.69a12.62,12.62,0,0,0-.41,2.5v.15l-.12,0-10.18-2.54-2.62-.66-.87-.23s.32.06.91.2l2.65.62,10.16,2.42-.12.13a11.6,11.6,0,0,1,.39-2.61c.21-.87.43-1.78.7-2.71.5-1.86,1.13-3.83,1.82-5.9,1.39-4.15,3.14-8.72,5.28-13.62a199.2,199.2,0,0,1,18-32.51,183,183,0,0,1,30.45-34.33A164.74,164.74,0,0,1,303.37,64.6l-.15.31c-.74-2.83-1.52-5.81-2.3-8.81-.59-2.24-1.17-4.48-1.71-6.55l.34.17a155.85,155.85,0,0,0-16.37,8.13c-5.25,2.94-10.25,6.12-15.07,9.38a218.62,218.62,0,0,0-26.09,21l-2.87,2.74-1.43,1.35-1.35,1.41-5.31,5.55c-3.31,3.81-6.59,7.44-9.45,11.22-1.47,1.85-2.93,3.66-4.22,5.54s-2.66,3.66-3.9,5.47-2.37,3.64-3.52,5.4c-.59.87-1.12,1.76-1.64,2.65s-1,1.76-1.55,2.62a155.28,155.28,0,0,0-15.21,34.71c-1.23,4.3-2,7.7-2.42,10-.2,1.16-.35,2.05-.43,2.65l-.1.67A2.32,2.32,0,0,1,188.58,180.4Z" style="fill:#e0e0e0"></path><path d="M540.76,229.87s0-.91-.09-2.7c0-.89-.06-2-.1-3.32s-.07-2.86-.23-4.6-.29-3.68-.46-5.82-.56-4.47-.87-7c-.71-5-1.81-10.82-3.38-17.25-.37-1.61-.9-3.23-1.36-4.92-.23-.84-.48-1.69-.72-2.55-.13-.43-.25-.86-.37-1.3s-.29-.86-.44-1.3l-1.82-5.34c-.59-1.83-1.4-3.63-2.11-5.51a160.79,160.79,0,0,0-11.59-23.46,168.16,168.16,0,0,0-42.28-47.32,166.06,166.06,0,0,0-70.05-31.1,169.32,169.32,0,0,0-65.2.74c-3.71.86-7.46,1.66-11.15,2.79s-7.39,2.31-11.1,3.55A166.9,166.9,0,0,0,275.3,96.12a181.72,181.72,0,0,0-18.77,16.16,179.23,179.23,0,0,0-16.43,19.18c-1.24,1.73-2.47,3.47-3.71,5.21s-2.31,3.6-3.47,5.4-2.2,3.69-3.29,5.54l-1.61,2.8-1.49,2.88-1.48,2.89c-.5,1-1,1.93-1.42,2.93L221,165.05c-.8,2-1.61,4.06-2.41,6.1l-.6,1.52-.53,1.56-1,3.12-1.06,3.12-.9,3.18-.9,3.18-.45,1.59-.37,1.62c-.5,2.15-1,4.31-1.49,6.48L210,203.08a180.57,180.57,0,0,0-2.18,26.77A180.7,180.7,0,0,0,210,256.63q.6,3.28,1.18,6.57c.49,2.16,1,4.32,1.48,6.47s1.15,4.27,1.72,6.4l.9,3.18,1.06,3.12,1.05,3.12.53,1.56.6,1.52,2.4,6.1c.9,2,1.8,4,2.69,5.95l.68,1.48.74,1.44,1.48,2.89,1.49,2.88,1.61,2.81c1.09,1.85,2.09,3.76,3.29,5.54s2.31,3.61,3.47,5.4l3.7,5.21a179.6,179.6,0,0,0,16.44,19.19,182.1,182.1,0,0,0,18.78,16.17,166.45,166.45,0,0,0,42.14,22.66c3.71,1.24,7.36,2.57,11.1,3.55,3.69,1.13,7.44,1.93,11.15,2.79a164.21,164.21,0,0,0,22.3,3.11,165.9,165.9,0,0,0,42.91-2.37A165.76,165.76,0,0,0,475,362.26a168.32,168.32,0,0,0,42.28-47.32,160.19,160.19,0,0,0,11.58-23.46c.72-1.88,1.52-3.68,2.12-5.51l1.81-5.34c.31-.87.58-1.73.81-2.6s.49-1.71.73-2.55c.45-1.68,1-3.3,1.35-4.92,1.57-6.42,2.67-12.2,3.38-17.25.31-2.53.65-4.85.87-7s.32-4.09.46-5.83.2-3.27.23-4.59.07-2.43.1-3.32c.05-1.79.09-2.71.09-2.71s0,.92,0,2.71c0,.89,0,2-.07,3.32s0,2.86-.21,4.6-.27,3.69-.43,5.83-.54,4.47-.85,7a173.42,173.42,0,0,1-3.33,17.28c-.36,1.62-.89,3.24-1.35,4.93-.24.84-.48,1.69-.72,2.56s-.5,1.73-.8,2.6l-1.81,5.35c-.59,1.84-1.4,3.64-2.11,5.53a160.38,160.38,0,0,1-11.56,23.51,168.49,168.49,0,0,1-42.3,47.46A166.29,166.29,0,0,1,405,393.79a169.51,169.51,0,0,1-65.39-.7c-3.72-.86-7.48-1.66-11.18-2.8-3.75-1-7.41-2.31-11.13-3.55A167,167,0,0,1,275,364a166.2,166.2,0,0,1-35.33-35.45L236,323.35l-3.49-5.42c-1.2-1.78-2.2-3.7-3.3-5.56l-1.62-2.81-1.49-2.89-1.48-2.9-.75-1.45-.67-1.48-2.7-6c-.8-2-1.61-4.07-2.41-6.11l-.61-1.54-.53-1.56-1-3.12-1.06-3.14-.91-3.19c-.57-2.13-1.28-4.24-1.72-6.41s-1-4.33-1.49-6.5-.79-4.39-1.18-6.59a166.12,166.12,0,0,1,0-53.71l1.17-6.59,1.5-6.49.37-1.63.45-1.59.9-3.2.91-3.18,1.06-3.14,1-3.12.53-1.56.61-1.54c.8-2,1.61-4.07,2.41-6.11l2.7-6c.43-1,.92-2,1.42-2.94l1.49-2.89,1.49-2.89,1.61-2.81c1.1-1.86,2.1-3.78,3.3-5.56l3.49-5.42,3.71-5.22A165.84,165.84,0,0,1,275,95.72,167.2,167.2,0,0,1,317.28,73c3.72-1.24,7.38-2.58,11.13-3.55,3.7-1.14,7.46-1.94,11.18-2.8A168.52,168.52,0,0,1,362,63.55,165.82,165.82,0,0,1,405,66a166.11,166.11,0,0,1,70.2,31.23,168.49,168.49,0,0,1,42.3,47.46A160.08,160.08,0,0,1,529,168.17c.71,1.88,1.51,3.69,2.11,5.52s1.22,3.61,1.8,5.36c.15.43.29.86.44,1.3l.37,1.3q.36,1.29.72,2.55c.46,1.69,1,3.31,1.34,4.93a171.4,171.4,0,0,1,3.34,17.28c.31,2.53.64,4.86.85,7s.3,4.09.43,5.83.19,3.27.21,4.59.05,2.44.07,3.33C540.76,229,540.76,229.87,540.76,229.87Z" style="fill:#e0e0e0"></path><path d="M390.66,40.9c-.06,0,0-.59-.31-1.6a6.61,6.61,0,0,0-2.43-3.54,6.48,6.48,0,0,0-6.1-.88,6.41,6.41,0,0,0-3,2.24,6.52,6.52,0,0,0-1.24,3.78A6.45,6.45,0,0,0,387.92,46a6.61,6.61,0,0,0,2.43-3.54c.27-1,.25-1.6.31-1.6a2.43,2.43,0,0,1,0,.43,6,6,0,0,1-.14,1.22,6.65,6.65,0,0,1-2.41,3.78,6.78,6.78,0,0,1-6.48,1A6.7,6.7,0,0,1,378.44,45a6.84,6.84,0,0,1,0-8.16,6.84,6.84,0,0,1,9.7-1.35,6.65,6.65,0,0,1,2.41,3.78,6.08,6.08,0,0,1,.14,1.22A2.43,2.43,0,0,1,390.66,40.9Z" style="fill:#e0e0e0"></path><path d="M208.18,216.41l-.53,0-1.54,0-5.79.07-20.33.1h-.12l-.07-.1-11.21-15.49c-5.15-7.14-10-13.83-14-19.48l.18.09-16.9-.09-4.73-.07-1.25,0a2.43,2.43,0,0,1-.43,0,1.34,1.34,0,0,1,.43,0l1.25,0,4.73-.07,16.9-.09h.11l.07.09L169,200.76l11.17,15.51-.19-.1,20.33.09,5.79.07,1.54,0A2,2,0,0,1,208.18,216.41Z" style="fill:#e0e0e0"></path><path d="M131.84,181.45s0,.11,0,.33a3.81,3.81,0,0,1-.1,1,5.13,5.13,0,0,1-1.88,3,5.39,5.39,0,0,1-5.13.83,5.28,5.28,0,0,1-2.55-1.89,5.43,5.43,0,0,1,0-6.47,5.28,5.28,0,0,1,2.55-1.89,5.39,5.39,0,0,1,5.13.83,5.13,5.13,0,0,1,1.88,3,3.81,3.81,0,0,1,.1,1c0,.22,0,.34,0,.34s0-.47-.26-1.25a5.25,5.25,0,0,0-1.91-2.76,5,5,0,1,0,0,8,5.23,5.23,0,0,0,1.91-2.75C131.8,181.91,131.79,181.44,131.84,181.45Z" style="fill:#e0e0e0"></path><path d="M628.21,310.25s0-.11,0-.33a3.89,3.89,0,0,1,.1-1,5.21,5.21,0,0,1,1.89-3,5.39,5.39,0,0,1,7.68,1.06,5.44,5.44,0,0,1-2.55,8.36,5.41,5.41,0,0,1-5.13-.83,5.23,5.23,0,0,1-1.89-3,3.81,3.81,0,0,1-.1-1c0-.22,0-.34,0-.34s0,.47.26,1.25a5.23,5.23,0,0,0,1.91,2.75,5,5,0,1,0,4.74-8.68,5.07,5.07,0,0,0-4.74.68,5.23,5.23,0,0,0-1.91,2.75C628.25,309.79,628.26,310.25,628.21,310.25Z" style="fill:#e0e0e0"></path><path d="M527.65,298.89a1.74,1.74,0,0,1,.32.18l.89.58,3.4,2.25,12.3,8.29-.11,0,31.8-.06,36.87.08,11.18.08,3,.05.79,0a.76.76,0,0,1,.26,0l-.26,0-.79,0-3,0-11.18.09-36.87.07-31.8-.05h-.07l0,0-12.2-8.44-3.34-2.34-.86-.63C527.74,299,527.64,298.9,527.65,298.89Z" style="fill:#e0e0e0"></path><path d="M452.21,402.22s-.07,0-.22.12l-.68.31-2.62,1.12c-1.15.47-2.54,1.08-4.18,1.72l-5.62,2c-2.08.76-4.42,1.43-6.9,2.23s-5.19,1.45-8,2.24c-5.7,1.38-12,2.73-18.7,3.73a162.6,162.6,0,0,1-27.94,1.89h-.2v-.21c0-6.31.07-11.53.09-15.23,0-1.79,0-3.21.06-4.23q0-.68,0-1.11a.19.19,0,1,1,.06,0c0,.29,0,.66,0,1.11,0,1,0,2.44.05,4.23,0,3.7.06,8.92.1,15.23l-.21-.21a170.14,170.14,0,0,0,27.85-2c6.67-1,13-2.33,18.65-3.69,2.82-.77,5.52-1.43,8-2.19s4.82-1.42,6.9-2.16l5.64-2c1.65-.61,3-1.19,4.2-1.63l2.66-1,.7-.25Z" style="fill:#e0e0e0"></path><path d="M545,396.46a.86.86,0,0,1-.26.1l-.76.24-2.93.86-10.81,3.06-35.72,9.92-2.63.72-.17.05-.1-.14c-8.47-10.95-16.07-20.76-21.57-27.88L463.62,375l-1.72-2.29-.44-.61a.93.93,0,0,1-.13-.21l.17.18.48.58,1.8,2.23,6.56,8.31L492,411l-.28-.09,2.63-.72,35.76-9.78,10.86-2.9,3-.76.78-.19A1,1,0,0,1,545,396.46Z" style="fill:#e0e0e0"></path><path d="M377.35,40.9a4.44,4.44,0,0,1-.79.07l-2.28.09-3.61.12-2.25.07-2.52.16-5.78.38-6.61.67c-2.33.23-4.75.63-7.27.95s-5.11.87-7.77,1.31A171.84,171.84,0,0,0,311.83,52c-3.33,1.21-5.95,2.36-7.76,3.16l-2.06,1a5.14,5.14,0,0,1-.73.32A4.68,4.68,0,0,1,302,56c.45-.26,1.14-.6,2-1.05,1.79-.86,4.4-2.06,7.72-3.33a160,160,0,0,1,26.67-7.44c2.67-.45,5.26-1,7.79-1.3s5-.71,7.3-.93l6.63-.62,5.79-.32,2.53-.13,2.25,0,3.61,0h2.29A4.37,4.37,0,0,1,377.35,40.9Z" style="fill:#e0e0e0"></path><path d="M374.52,362.75c-70.89,0-128.57-59-128.57-131.52S303.63,99.71,374.52,99.71s128.57,59,128.57,131.52S445.42,362.75,374.52,362.75Zm0-262C304.18,100.71,247,159.26,247,231.23s57.23,130.52,127.57,130.52S502.09,303.2,502.09,231.23,444.87,100.71,374.52,100.71Z" style="fill:#e0e0e0"></path><path d="M367.44,362.43c-.59-.58-58.87-59-58.87-134.19,0-39.3,17.85-72.13,32.82-92.74,16.22-22.33,32.66-35.55,32.82-35.68l.63.78c-.17.13-16.52,13.28-32.66,35.51-14.87,20.49-32.61,53.11-32.61,92.13,0,74.75,58,132.9,58.57,133.48Z" style="fill:#e0e0e0"></path><path d="M372.72,181.91c-34.83,0-67-10.59-98.29-32.37l.57-.82c31.13,21.66,63.1,32.19,97.72,32.19,42.25,0,79.18-16.3,102.72-30l.5.86C452.29,165.53,415.19,181.91,372.72,181.91Z" style="fill:#e0e0e0"></path><path d="M475.4,312.24c-22.61-15.46-58.65-33.88-102-33.88-43,0-80.61,16.31-104.57,30l-.5-.87c24.07-13.74,61.83-30.12,105.07-30.12,43.58,0,79.81,18.52,102.54,34.05Z" style="fill:#e0e0e0"></path><path d="M381.32,362.43l-.7-.71c.58-.58,58.57-58.73,58.57-133.48,0-39-17.75-71.66-32.63-92.16-16.14-22.21-32.47-35.35-32.63-35.48l.62-.78c.16.13,16.6,13.35,32.82,35.68,15,20.61,32.82,53.44,32.82,92.74C440.19,303.42,381.91,361.85,381.32,362.43Z" style="fill:#e0e0e0"></path><rect x="244.87" y="224.54" width="258.73" height="1" style="fill:#e0e0e0"></rect><polygon points="543.35 337.55 525.89 324.12 520.76 331.09 537.55 344.78 543.35 337.55" style="fill:#e0e0e0"></polygon><polygon points="534.31 349.07 517.55 334.77 512.07 341.48 528.15 356 534.31 349.07" style="fill:#e0e0e0"></polygon><polygon points="524.72 360.05 508.76 344.87 502.93 351.26 518.38 366.83 524.72 360.05" style="fill:#e0e0e0"></polygon><polygon points="514.87 370.26 499.86 354.56 493.73 360.68 508.26 376.75 514.87 370.26" style="fill:#e0e0e0"></polygon><path d="M487.08,79.22l-.19-.16-.5-.49-1.91-1.93c-.83-.83-1.8-1.9-3.06-3l-2-1.79c-.7-.64-1.43-1.32-2.26-2-1.66-1.3-3.38-2.83-5.42-4.24l-3.1-2.24-3.4-2.22a137.71,137.71,0,0,0-15.83-8.68,129.78,129.78,0,0,0-18.48-7l.27-.13-7.55,17.73c-.92,2.12-1.66,3.81-2.18,5l-.59,1.32a2.16,2.16,0,0,1-.23.44,2.64,2.64,0,0,1,.16-.47c.13-.34.3-.79.52-1.35.5-1.22,1.19-2.92,2.06-5.07,1.81-4.38,4.36-10.53,7.38-17.8l.08-.2.19.06a124.26,124.26,0,0,1,18.59,7,133.82,133.82,0,0,1,15.87,8.74l3.4,2.25,3.1,2.28c2,1.42,3.75,3,5.4,4.29.82.66,1.55,1.35,2.24,2l2,1.83c1.25,1.11,2.2,2.2,3,3.06l1.84,2,.46.52C487,79.14,487.09,79.21,487.08,79.22Z" style="fill:#e0e0e0"></path><polygon points="453 42 442.39 61.3 454.2 67.92 465.77 49.18 453 42" style="fill:#e0e0e0"></polygon><polygon points="465.77 49.18 454.2 67.92 461.65 72.31 473.56 54.21 465.77 49.18" style="fill:#e0e0e0"></polygon><polygon points="478.08 56.98 465.51 75.07 472.72 79.86 485.75 62.21 478.08 56.98" style="fill:#e0e0e0"></polygon><polygon points="489.68 65.16 476.45 82.39 483.42 87.51 497.1 70.71 489.68 65.16" style="fill:#e0e0e0"></polygon><polygon points="179.75 247.4 201.77 246.76 201.34 238.12 179.41 238.13 179.75 247.4" style="fill:#e0e0e0"></polygon><polygon points="179.44 233.22 201.16 233.62 201.14 224.96 179.49 223.95 179.44 233.22" style="fill:#e0e0e0"></polygon><circle cx="545.01" cy="396.46" r="5.22" style="fill:#fff"></circle><path d="M539.79,396.46s0-.11,0-.33a3.93,3.93,0,0,1,.1-1,5.21,5.21,0,0,1,1.89-3,5.35,5.35,0,0,1,5.13-.83,5.26,5.26,0,0,1,2.54,1.89,5.43,5.43,0,0,1,1.08,3.23,5.52,5.52,0,0,1-1.07,3.24,5.41,5.41,0,0,1-7.68,1.06,5.2,5.2,0,0,1-1.89-3,3.81,3.81,0,0,1-.1-1c0-.22,0-.34,0-.34s0,.47.26,1.25a5.19,5.19,0,0,0,1.91,2.76,5,5,0,1,0,0-8,5.17,5.17,0,0,0-1.91,2.75C539.83,396,539.84,396.47,539.79,396.46Z" style="fill:#e0e0e0"></path><circle cx="275.6" cy="131.79" r="7.6" style="fill:#e0e0e0"></circle></g></svg>
